<?xml version="1.0" encoding="utf-8"?>
<!-- Generator: Adobe Illustrator 26.0.1, SVG Export Plug-In . SVG Version: 6.00 Build 0)  -->
<svg version="1.1" id="Layer_1" xmlns="http://www.w3.org/2000/svg" xmlns:xlink="http://www.w3.org/1999/xlink" x="0px" y="0px"
	 viewBox="0 0 292.4 320.8" style="enable-background:new 0 0 292.4 320.8;" xml:space="preserve">
<style type="text/css">
	.st0{fill:#FFFFFF;}
</style>
<path class="st0" d="M138.8,42C138.5,18.8,157-0.2,180.1-0.6s42.2,18.1,42.6,41.3c0,0.4,0,0.9,0,1.3H138.8z"/>
<path class="st0" d="M222.8,236.2L222.7,45h-83.9v24.3h65.6v183.5L180,264.5l-23.6-11.8V84.2H129L78.5,214.4h-0.9l-50-130.2H0v157.9
	h17V141.7c0-15.3-0.6-28.5-1.6-39.6h0.9l53.6,140l14.7,0.1l54-139.8h0.9c-1,13.7-1.5,26.3-1.5,38v112.3l42,68l42.6-67.9h69.9v-16.6
	H222.8z M180,306.3L169.3,289l10.7,3l10.9-3L180,306.3z M213.6,60.8H148v-7.3h65.6V60.8z"/>
</svg>
