<?xml version="1.0" encoding="utf-8"?>
<!-- Generator: Adobe Illustrator 26.0.1, SVG Export Plug-In . SVG Version: 6.00 Build 0)  -->
<svg version="1.1" id="Layer_1" xmlns="http://www.w3.org/2000/svg" xmlns:xlink="http://www.w3.org/1999/xlink" x="0px" y="0px"
	 viewBox="0 0 96 96" style="enable-background:new 0 0 96 96;" xml:space="preserve">
<style type="text/css">
	.st0{fill:#DB507A;}
</style>
<path class="st0" d="M80,0H16C7.2,0,0,7.2,0,16v64c0,8.8,7.2,16,16,16h64c8.8,0,16-7.2,16-16V16C96,7.2,88.8,0,80,0z M32,78H22V38
	h10V78z M32.1,30c-1.3,1.3-3,2-5.1,2s-3.7-0.7-5-2s-2-3-2-5s0.7-3.7,2-5s3-1.9,5-1.9c2.1,0,3.8,0.6,5.1,1.9c1.3,1.3,1.9,3,1.9,5
	S33.4,28.7,32.1,30z M78,78H68V55.8c0-6.2-3.6-9.8-8-9.8c-2.1,0-4.5,1.3-5.9,2.9S52,52.6,52,55.1V78H42V38h10v6.3h0.2
	C55.1,39.5,59.4,37,65,37c8,0,13,6,13,16.5V78z"/>
</svg>
