<?xml version="1.0" encoding="utf-8"?>
<!-- Generator: Adobe Illustrator 26.0.1, SVG Export Plug-In . SVG Version: 6.00 Build 0)  -->
<svg version="1.1" id="Layer_1" xmlns="http://www.w3.org/2000/svg" xmlns:xlink="http://www.w3.org/1999/xlink" x="0px" y="0px"
	 viewBox="0 0 100.1 100.1" style="enable-background:new 0 0 100.1 100.1;" xml:space="preserve">
<style type="text/css">
	.st0{fill:#DB507A;}
</style>
<path class="st0" d="M29.2,0C13.1,0,0,13.1,0,29.2v41.7c0,16.1,13.1,29.2,29.2,29.2h41.7c16.1,0,29.2-13.1,29.2-29.2V29.2
	C100,13.1,86.9,0,70.8,0H29.2z M80,16c2.2,0,4,1.8,4,4s-1.8,4-4,4s-4-1.8-4-4S77.8,16,80,16z M50,24c14.3,0,26,11.7,26,26
	S64.3,76,50,76S24,64.3,24,50S35.7,24,50,24z M50,32c-9.9,0-18,8.1-18,18s8.1,18,18,18s18-8.1,18-18S59.9,32,50,32z"/>
</svg>
