<?xml version="1.0" encoding="utf-8"?>
<!-- Generator: Adobe Illustrator 26.0.1, SVG Export Plug-In . SVG Version: 6.00 Build 0)  -->
<svg version="1.1" id="Layer_1" xmlns="http://www.w3.org/2000/svg" xmlns:xlink="http://www.w3.org/1999/xlink" x="0px" y="0px"
	 viewBox="0 0 128 128" style="enable-background:new 0 0 128 128;" xml:space="preserve">
<style type="text/css">
	.st0{fill:#DB507A;}
</style>
<path class="st0" d="M96,16H32c-8.8,0-16,7.2-16,16v64c0,8.8,7.2,16,16,16h64c8.8,0,16-7.2,16-16V32C112,23.2,104.8,16,96,16z
	 M48,94H38V54h10V94z M48.1,46c-1.3,1.3-3,2-5.1,2s-3.7-0.7-5-2s-2-3-2-5s0.7-3.7,2-5s3-1.9,5-1.9c2.1,0,3.8,0.6,5.1,1.9
	c1.3,1.3,1.9,3,1.9,5S49.4,44.7,48.1,46z M94,94H84V71.8c0-6.2-3.6-9.8-8-9.8c-2.1,0-4.5,1.3-5.9,2.9S68,68.6,68,71.1V94H58V54h10
	v6.3h0.2C71.1,55.5,75.4,53,81,53c8,0,13,6,13,16.5V94z"/>
</svg>
