<?xml version="1.0" encoding="utf-8"?>
<!-- Generator: Adobe Illustrator 26.0.1, SVG Export Plug-In . SVG Version: 6.00 Build 0)  -->
<svg version="1.1" id="Layer_1" xmlns="http://www.w3.org/2000/svg" xmlns:xlink="http://www.w3.org/1999/xlink" x="0px" y="0px"
	 viewBox="0 0 128 128" style="enable-background:new 0 0 128 128;" xml:space="preserve">
<style type="text/css">
	.st0{fill:#DB507A;}
</style>
<path class="st0" d="M43.2,14C27.1,14,14,27.1,14,43.2v41.7c0,16.1,13.1,29.2,29.2,29.2h41.7c16.1,0,29.2-13.1,29.2-29.2V43.2
	C114,27.1,100.9,14,84.8,14H43.2z M94,30c2.2,0,4,1.8,4,4s-1.8,4-4,4s-4-1.8-4-4S91.8,30,94,30z M64,38c14.3,0,26,11.7,26,26
	S78.3,90,64,90S38,78.3,38,64S49.7,38,64,38z M64,46c-9.9,0-18,8.1-18,18s8.1,18,18,18s18-8.1,18-18S73.9,46,64,46z"/>
</svg>
