<svg id="Layer_1" data-name="Layer 1" xmlns="http://www.w3.org/2000/svg" viewBox="0 0 517 517"><defs><style>.cls-1{fill:#fff;}.cls-2{fill:#0c203e;}</style></defs><rect class="cls-1" width="517" height="517" rx="78.92"/><path class="cls-2" d="M91.08,372.14h9.46l22,64.13,21.12-64.35h7.15l21.12,64.35,22-64.13h9.13l-27.5,77.55h-7.37l-21.12-62.48-21.23,62.48h-7.26Z" transform="translate(-47.5 -125.21)"/><path class="cls-2" d="M201.19,421v-.22a29.65,29.65,0,0,1,59.29-.22v.22a29.53,29.53,0,0,1-29.81,29.7A29.13,29.13,0,0,1,201.19,421Zm50.6,0v-.22c0-12.21-9.13-22.22-21.12-22.22-12.32,0-20.79,10-20.79,22v.22c0,12.21,9,22.11,21,22.11C243.21,442.87,251.79,433,251.79,421Z" transform="translate(-47.5 -125.21)"/><path class="cls-2" d="M272.69,392.27h8.47v14.85c4.18-9.46,12.43-16.28,23.21-15.84v9.13h-.66c-12.43,0-22.55,8.91-22.55,26.07v22.66h-8.47Z" transform="translate(-47.5 -125.21)"/><path class="cls-2" d="M311,368.84h8.47v55.44l30.69-32h10.56l-23.87,24.42,24.64,32.45H351.34L331,422.63l-11.55,11.66v14.85H311Z" transform="translate(-47.5 -125.21)"/><path class="cls-2" d="M369.49,370.49h9.68v9.35h-9.68Zm.55,21.78h8.47v56.87H370Z" transform="translate(-47.5 -125.21)"/><path class="cls-2" d="M397.57,392.27H406v9.9c3.74-6.16,9.68-11.11,19.47-11.11,13.75,0,21.78,9.24,21.78,22.77v35.31h-8.47V415.92c0-10.56-5.72-17.16-15.73-17.16-9.79,0-17,7.15-17,17.82v32.56h-8.47Z" transform="translate(-47.5 -125.21)"/><path class="cls-2" d="M462.38,459l3.85-6.6a36.33,36.33,0,0,0,21.89,7.26c12.54,0,20.68-6.93,20.68-20.24v-6.71c-4.95,6.6-11.88,12-22.33,12-13.64,0-26.73-10.23-26.73-26.62v-.22c0-16.61,13.2-26.84,26.73-26.84,10.67,0,17.6,5.28,22.22,11.44V392.27h8.47v47c0,8.8-2.64,15.51-7.26,20.13-5.06,5.06-12.65,7.59-21.67,7.59A44.59,44.59,0,0,1,462.38,459ZM509,418v-.22c0-11.66-10.12-19.25-20.9-19.25s-19.69,7.48-19.69,19.14v.22c0,11.44,9.13,19.36,19.69,19.36C498.9,437.26,509,429.45,509,418Z" transform="translate(-47.5 -125.21)"/><path class="cls-2" d="M93.09,544.48l10-12c6.93,5.72,14.19,9.35,23,9.35,6.93,0,11.11-2.75,11.11-7.26v-.22c0-4.29-2.64-6.49-15.51-9.79-15.51-4-25.52-8.25-25.52-23.54v-.22c0-14,11.22-23.21,27-23.21a44.57,44.57,0,0,1,28.6,9.79l-8.8,12.76c-6.82-4.73-13.53-7.59-20-7.59s-9.9,3-9.9,6.71v.22c0,5.06,3.3,6.71,16.61,10.12,15.62,4.07,24.42,9.68,24.42,23.1v.22c0,15.29-11.66,23.87-28.27,23.87A49,49,0,0,1,93.09,544.48Z" transform="translate(-47.5 -125.21)"/><path class="cls-2" d="M165,496.74h16.72v8.36c3.85-5,8.91-9.46,17.38-9.46,7.7,0,13.53,3.41,16.61,9.35,5.17-6.05,11.33-9.35,19.36-9.35,12.43,0,19.91,7.48,19.91,21.67V555.7H238.27V522.81c0-7.92-3.52-12-9.79-12s-10.12,4.07-10.12,12V555.7H201.64V522.81c0-7.92-3.52-12-9.79-12s-10.12,4.07-10.12,12V555.7H165Z" transform="translate(-47.5 -125.21)"/><path class="cls-2" d="M264,538.76v-.22c0-12.87,9.79-18.81,23.76-18.81a41.9,41.9,0,0,1,14.41,2.42v-1c0-6.93-4.29-10.78-12.65-10.78a43.37,43.37,0,0,0-16.28,3.19l-4.18-12.76a52,52,0,0,1,22.88-4.73c9.13,0,15.73,2.42,19.91,6.6,4.4,4.4,6.38,10.89,6.38,18.81V555.7H302.05v-6.38c-4.07,4.51-9.68,7.48-17.82,7.48C273.12,556.8,264,550.42,264,538.76Zm38.39-3.85v-3a25.93,25.93,0,0,0-10.67-2.2c-7.15,0-11.55,2.86-11.55,8.14v.22c0,4.51,3.74,7.15,9.13,7.15C297.1,545.25,302.38,541,302.38,534.91Z" transform="translate(-47.5 -125.21)"/><path class="cls-2" d="M330.63,496.74h16.72v11.88c3.41-8.14,8.91-13.42,18.81-13v17.49h-.88c-11.11,0-17.93,6.71-17.93,20.79V555.7H330.63Z" transform="translate(-47.5 -125.21)"/><path class="cls-2" d="M380.36,539V511h-7v-14.3h7V481.67h16.72v15.07h13.86V511H397.08v25.19c0,3.85,1.65,5.72,5.39,5.72a17,17,0,0,0,8.25-2.09v13.42a24.65,24.65,0,0,1-13.2,3.41C387.29,556.69,380.36,552.62,380.36,539Z" transform="translate(-47.5 -125.21)"/><path class="cls-2" d="M416.76,526.55v-.22c0-16.83,12-30.69,29.15-30.69,19.69,0,28.71,15.29,28.71,32,0,1.32-.11,2.86-.22,4.4h-41c1.65,7.59,6.93,11.55,14.41,11.55,5.61,0,9.68-1.76,14.3-6.05l9.57,8.47c-5.5,6.82-13.42,11-24.09,11C429.85,557,416.76,544.59,416.76,526.55Zm41.58-4.95c-1-7.48-5.39-12.54-12.43-12.54S434.47,514,433.15,521.6Z" transform="translate(-47.5 -125.21)"/><path class="cls-2" d="M485.77,496.74h16.72v11.88c3.41-8.14,8.91-13.42,18.81-13v17.49h-.88c-11.11,0-17.93,6.71-17.93,20.79V555.7H485.77Z" transform="translate(-47.5 -125.21)"/><path class="cls-2" d="M514.52,210.3S406.91,208.19,338,238.38l-.06,0c-9.14-15-53.57-14.52-63.95-.28l0,0c-58.58-30.4-174.6-27.8-174.6-27.8a8.33,8.33,0,0,0-8.34,8.34h0A10.9,10.9,0,0,0,102,229.53h4.67c3.34,33.7,29.58,104.69,101.28,104.69,80.17,0,82.67-72.53,82.46-85.89a56.49,56.49,0,0,1,32,.44c-.14,14.49,3.18,85.45,82.47,85.45,71.7,0,97.93-71,101.28-104.69H512a10.9,10.9,0,0,0,10.89-10.89h0A8.33,8.33,0,0,0,514.52,210.3ZM202.64,317.53c-56.18-2.06-81-72.36-74.79-90.26,17.14-2.63,103.36,10.6,142.66,26.67C267.22,278,261.28,319.18,202.64,317.53Zm207.46,0c-58.63,1.65-64.57-39.53-67.86-63.59,39.3-16.07,125.52-29.3,142.66-26.67C491.16,245.17,466.29,315.47,410.1,317.53Z" transform="translate(-47.5 -125.21)"/></svg>