<?xml version="1.0" encoding="utf-8"?>
<!-- Generator: Adobe Illustrator 26.0.1, SVG Export Plug-In . SVG Version: 6.00 Build 0)  -->
<svg version="1.1" id="Layer_1" xmlns="http://www.w3.org/2000/svg" xmlns:xlink="http://www.w3.org/1999/xlink" x="0px" y="0px"
	 viewBox="0 0 320 320" style="enable-background:new 0 0 320 320;" xml:space="preserve">
<style type="text/css">
	.st0{fill:url(#SVGID_1_);}
	.st1{fill:url(#SVGID_00000078739155721816017060000002885742359958219404_);}
	.st2{fill:url(#SVGID_00000083799274178320285970000002791613703433345413_);}
	.st3{fill:url(#SVGID_00000009568659808296524420000006445800456071988883_);}
	.st4{fill:url(#SVGID_00000026160338802671279500000007306049190687103897_);}
	.st5{fill:url(#SVGID_00000160150190730753178850000010038288898488199338_);}
	.st6{fill:url(#SVGID_00000176744356553048154700000011615066209022349239_);}
</style>
<linearGradient id="SVGID_1_" gradientUnits="userSpaceOnUse" x1="-368.7181" y1="-54.4981" x2="416.8255" y2="-54.4981" gradientTransform="matrix(1 0 0 -1 -120.77 110.12)">
	<stop  offset="0" style="stop-color:#36003F"/>
	<stop  offset="1" style="stop-color:#60287D"/>
</linearGradient>
<path class="st0" d="M67.1,255.7C41.7,229.5,29,198.8,29,163.7s12.9-65.4,38.6-91.1c25.8-25.6,56.7-38.4,92.7-38.4
	s66.9,12.8,92.4,38.3c25.5,25.5,38.3,55.9,38.3,91.2c0,35.3-12.6,66-38,92C227.8,282,197.5,295,162.4,295h-5
	C122.6,295,92.5,281.9,67.1,255.7z M280,164.4c0-33-11.7-61.4-35.1-85C221.5,55.8,193.3,44,160.2,44c-33.1,0-61.3,11.8-84.8,35.5
	c-23.5,23.6-35.3,52-35.3,85c0,33,11.8,61.4,35.3,85.2s51.7,35.6,84.7,35.6c32.9,0,61.2-11.9,84.7-35.6
	C268.2,225.9,280,197.5,280,164.4z"/>
<linearGradient id="SVGID_00000036232268730424154100000014691531697971451568_" gradientUnits="userSpaceOnUse" x1="165.2016" y1="-93.7594" x2="392.801" y2="23.4097" gradientTransform="matrix(1 0 0 -1 -120.77 110.12)">
	<stop  offset="0" style="stop-color:#36003F"/>
	<stop  offset="0.33" style="stop-color:#60287D"/>
	<stop  offset="0.74" style="stop-color:#004E82"/>
	<stop  offset="1" style="stop-color:#3E80C2"/>
</linearGradient>
<path style="fill:url(#SVGID_00000036232268730424154100000014691531697971451568_);" d="M269.8,112.6l5.7,15.8
	c14.8,4.6,23.5,10.1,23.5,16c0,5.6-7.8,10.8-21.1,15.3l0,0c-2.2,0.7-4.6,1.4-7.1,2.1h-0.1c-2.5,0.7-5.1,1.3-7.9,2l0,0
	c-25.4,5.8-62.1,9.4-102.8,9.4s-77.4-3.6-102.8-9.4l0,0c-2.8-0.6-5.4-1.3-7.9-2h-0.1c-2.5-0.7-4.9-1.4-7.1-2.1l0,0
	C28.7,155.2,21,150,21,144.4c0-5.9,8.7-11.4,23.5-16l5.7-15.8C19.3,120.5,0,131.8,0,144.4s19.1,23.7,49.7,31.7l0.9,0.2
	c5,1.3,10.4,2.5,16,3.6l1.3,0.2c21.1,4.1,46.1,6.8,73.1,7.7h0.6c6.1,0.2,12.2,0.3,18.5,0.3c5.6,0,11.1-0.1,16.6-0.2l0,0
	c5.4-0.2,10.8-0.4,16-0.7l0,0c72.7-4.1,127.4-21.7,127.4-42.8C320,131.8,300.7,120.5,269.8,112.6z"/>
<linearGradient id="SVGID_00000068666825622428938260000005028306310611508360_" gradientUnits="userSpaceOnUse" x1="152.114" y1="-68.3512" x2="379.7216" y2="48.8261" gradientTransform="matrix(1 0 0 -1 -120.77 110.12)">
	<stop  offset="0" style="stop-color:#36003F"/>
	<stop  offset="0.33" style="stop-color:#60287D"/>
	<stop  offset="0.74" style="stop-color:#004E82"/>
	<stop  offset="1" style="stop-color:#3E80C2"/>
</linearGradient>
<path style="fill:url(#SVGID_00000068666825622428938260000005028306310611508360_);" d="M187.6,116.7c-2.5-0.4-4.8,1.3-5.1,3.8
	c-0.2,1.5,0.3,3,1.5,4.1c0,0-10.1,11.2-12.7,15.2c-1.4,2.1-1.9,3.2-4.4,7.6l-5.1,8.9c-0.4,0-0.9-0.1-1.3-0.2l-1.5-10.2
	c-0.7-5.1-1.6-10.1-2.7-15.1c-1-4.7-2.2-9.3-3.5-13.9l-6.9-24c2.3-0.9,3.5-3.4,2.7-5.8c-0.5-1.4-1.7-2.5-3.2-2.8l-5.4-16.8l1.7,17.6
	c-2,1.5-2.4,4.3-0.9,6.3c0.9,1.2,2.4,1.9,3.9,1.8l3.7,24.7c0.7,4.7,1.6,9.5,2.6,14.1c1.1,5,2.4,10,3.8,14.9l2.8,9.9
	c-0.1,0.1-0.2,0.2-0.3,0.2c-0.3,0.2-0.5,0.4-0.7,0.6c-0.2,0.2-0.4,0.4-0.6,0.7c-0.1,0.1-0.2,0.2-0.3,0.3c-0.1,0.2-0.2,0.3-0.3,0.5
	c-0.1,0.1-0.1,0.2-0.2,0.4c-0.2,0.4-0.3,0.9-0.4,1.3c0,0.2,0,0.3,0,0.5c0,0.4,0,0.9,0.1,1.3c0,0.1,0,0.1,0,0.2
	c0.2,1,0.7,1.9,1.5,2.7l0,0c0.8,0.8,1.8,1.3,2.8,1.5l0,0l0,0c1.1,0.2,2.2,0.1,3.2-0.4l0,0c1-0.4,1.8-1.1,2.3-2
	c0-0.1,0.1-0.1,0.1-0.2c0.2-0.4,0.4-0.8,0.5-1.2c0-0.2,0.1-0.3,0.1-0.5c0.1-0.4,0.1-0.9,0.1-1.4c0-0.1,0-0.3,0-0.4
	c0-0.2,0-0.4-0.1-0.6c-0.1-0.2-0.1-0.3-0.2-0.4c-0.1-0.3-0.2-0.6-0.3-0.8c-0.1-0.3-0.3-0.6-0.5-0.8c-0.1-0.1-0.1-0.2-0.2-0.3
	l6.3-8.2c3.1-4,3.7-4.6,5.4-7c2.7-4,9.1-17.6,9.1-17.6c2.2,1.1,4.9,0.2,6-2c0.7-1.4,0.6-3-0.2-4.3l8.3-15.6L187.6,116.7z M141,88.4
	c-0.4-1.6,0.7-3.3,2.3-3.6c1.6-0.4,3.3,0.7,3.6,2.3c0.4,1.6-0.7,3.3-2.3,3.6C143,91.1,141.3,90.1,141,88.4
	C141,88.4,141,88.4,141,88.4L141,88.4z M160.3,162.8c-0.2,0-0.4,0-0.5,0c-0.2,0-0.3-0.1-0.5-0.2c-0.6-0.4-0.8-1.3-0.4-1.9
	c0,0,0,0,0,0c0.2-0.3,0.5-0.5,0.9-0.6l0,0c0.2,0,0.3,0,0.5,0c0.1,0,0.3,0.1,0.4,0.2c0,0,0,0,0.1,0c0.3,0.2,0.5,0.5,0.6,0.9
	C161.5,161.8,161.1,162.6,160.3,162.8C160.3,162.8,160.3,162.8,160.3,162.8L160.3,162.8z M189.9,122.2c-0.9,1.4-2.8,1.8-4.2,0.8
	c-1.4-0.9-1.8-2.8-0.8-4.2c0.9-1.4,2.8-1.8,4.2-0.8C190.5,118.9,190.8,120.8,189.9,122.2C189.9,122.2,189.9,122.2,189.9,122.2
	L189.9,122.2z"/>
<linearGradient id="SVGID_00000065032626120377754080000007442022125484694935_" gradientUnits="userSpaceOnUse" x1="155.1342" y1="-74.2196" x2="382.7418" y2="42.9495" gradientTransform="matrix(1 0 0 -1 -120.77 110.12)">
	<stop  offset="0" style="stop-color:#36003F"/>
	<stop  offset="0.33" style="stop-color:#60287D"/>
	<stop  offset="0.74" style="stop-color:#004E82"/>
	<stop  offset="1" style="stop-color:#3E80C2"/>
</linearGradient>
<path style="fill:url(#SVGID_00000065032626120377754080000007442022125484694935_);" d="M65,159.2c8.5,1.6,17.9,3.1,28.3,4.2
	c0.7-0.4,1.1-1.1,1.1-1.9v-0.1c0-1.3-1-2.3-2.3-2.3l0,0H65z"/>
<linearGradient id="SVGID_00000171691729817070039140000002711809502378774404_" gradientUnits="userSpaceOnUse" x1="156.4583" y1="-76.7789" x2="384.0577" y2="40.3902" gradientTransform="matrix(1 0 0 -1 -120.77 110.12)">
	<stop  offset="0" style="stop-color:#36003F"/>
	<stop  offset="0.33" style="stop-color:#60287D"/>
	<stop  offset="0.74" style="stop-color:#004E82"/>
	<stop  offset="1" style="stop-color:#3E80C2"/>
</linearGradient>
<path style="fill:url(#SVGID_00000171691729817070039140000002711809502378774404_);" d="M50.9,156c0.9-11.6,3.6-23,8.2-33.8
	c0.1,0,0.1,0.1,0.2,0.1l19.4,8c1.2,0.5,2.5-0.1,3-1.2c0.5-1.2-0.1-2.5-1.2-3l-19.4-8h-0.1c5.4-11.4,12.7-21.8,21.6-30.8l14.3,14.3
	c0.9,0.9,2.4,0.8,3.3-0.1c0.8-0.9,0.8-2.3,0-3.2L85.9,84.1c9.2-8.5,19.8-15.3,31.3-20.2l7.4,18c0.5,1.2,1.8,1.7,3,1.3
	c1.2-0.5,1.7-1.8,1.3-3l0,0l-7.4-18c11.6-4.3,23.8-6.7,36.2-6.9v38.4c0,1.3,1,2.3,2.3,2.3h0.1c1.3,0,2.3-1,2.3-2.3c0,0,0,0,0,0V55.2
	c12.4,0.2,24.7,2.6,36.3,7l-7.4,17.9c-0.5,1.2,0,2.5,1.2,3c1.2,0.5,2.5,0,3-1.2c0,0,0-0.1,0-0.1l7.5-18
	c11.5,4.9,22.1,11.7,31.3,20.2l-14.2,14.2c-0.8,1-0.7,2.4,0.3,3.3c0.9,0.7,2.1,0.7,3,0l14.3-14.3c9,8.9,16.3,19.4,21.7,30.8
	c0,0-0.1,0-0.1,0l-19.4,8c-1.2,0.5-1.8,1.8-1.3,3c0.5,1.2,1.8,1.8,3,1.3c0,0,0.1,0,0.1,0l19.4-8c0.1,0,0.1-0.1,0.2-0.1
	c4.5,10.7,7.3,22.1,8.2,33.7c3-0.8,5.8-1.6,8.4-2.4C271.4,88.6,213.8,41,148.9,47.1c-56.4,5.3-101.1,50-106.4,106.4
	C45.1,154.3,47.9,155.2,50.9,156z"/>
<linearGradient id="SVGID_00000014615497192137344760000007466590614376225719_" gradientUnits="userSpaceOnUse" x1="188.2077" y1="-138.4657" x2="415.8152" y2="-21.2885" gradientTransform="matrix(1 0 0 -1 -120.77 110.12)">
	<stop  offset="0" style="stop-color:#36003F"/>
	<stop  offset="0.33" style="stop-color:#60287D"/>
	<stop  offset="0.74" style="stop-color:#004E82"/>
	<stop  offset="1" style="stop-color:#3E80C2"/>
</linearGradient>
<path style="fill:url(#SVGID_00000014615497192137344760000007466590614376225719_);" d="M225.6,161.4L225.6,161.4
	c0,0.8,0.4,1.6,1.1,2c10.3-1.2,19.8-2.6,28.3-4.2h-27.1C226.6,159.1,225.6,160.2,225.6,161.4C225.6,161.4,225.6,161.4,225.6,161.4z"
	/>
<linearGradient id="SVGID_00000039839900427773469500000000352359967839234215_" gradientUnits="userSpaceOnUse" x1="191.2218" y1="-144.3061" x2="418.8212" y2="-27.1371" gradientTransform="matrix(1 0 0 -1 -120.77 110.12)">
	<stop  offset="0" style="stop-color:#36003F"/>
	<stop  offset="0.33" style="stop-color:#60287D"/>
	<stop  offset="0.74" style="stop-color:#004E82"/>
	<stop  offset="1" style="stop-color:#3E80C2"/>
</linearGradient>
<path style="fill:url(#SVGID_00000039839900427773469500000000352359967839234215_);" d="M266.2,188.8c0.1,13.6-7.7,26.3-20.1,31.8
	c-2.2,1-4.2,1.6-5.9,1.4c2.3-0.8,3.5-3.3,3-5.6c-0.7-2.3-2.9-3.8-5.3-3.7c-3,0.1-5.4,2.7-7,5.2c-1.7,2.5-3.2,5.4-5.8,6.9
	c-5.3,2.8-12-1.3-24.8,13.5l-0.1,0.1c-2.7,3.2-7.8-0.3-6.1-4.1c1.8-4.1,6-9.4,9.4-12.9c5.7-7.7-1.6-15.4,7-27.5
	c0.8-1,1.6-1.9,2.6-2.8c-16.6,1.6-34.5,2.4-53.1,2.4c-12.7,0-25.1-0.4-37-1.2c0.5,4.3,2.4,8.5,6,10.8c11,7.3,11.7,24.8-0.7,28.3
	c-12.4,3.5-33.4-3.9-39.9-11.6c-5.2-6.2-10.2-21-11.7-32.7c-11.4-1.8-22.7-4.4-33.8-7.6c8.2,64.6,67.3,110.4,131.9,102.2
	c53.4-6.8,95.4-48.8,102.2-102.2c-3.5,1-7.1,2-11,2.9C266.2,184.6,266.2,186.7,266.2,188.8z M183.6,205.8c5.3,0,12.9,4.3,12.9,9.7
	c0,5.3-7.6,9.7-12.9,9.7c-5.3,0-16.2-4.3-16.2-9.7S178.3,205.8,183.6,205.8z M171.3,229.4c2.1,0,3.8,1.7,3.8,3.8
	c0,2.1-1.7,3.8-3.8,3.8c-2.1,0-3.8-1.7-3.8-3.8c0,0,0,0,0,0C167.4,231.1,169.1,229.4,171.3,229.4L171.3,229.4z M159.3,274.1
	c-21.9,0-43.2-6.5-61.3-18.8c16.8-4.8,33.8-1.7,45.4,1.8c9.7,3,20,2.7,29.5-0.8c15.5-5.7,40.7-11.6,53.5-3.5
	C208.1,266.4,183.8,274.1,159.3,274.1z"/>
</svg>
