<?xml version="1.0" encoding="utf-8"?>
<!-- Generator: Adobe Illustrator 26.0.1, SVG Export Plug-In . SVG Version: 6.00 Build 0)  -->
<svg version="1.1" id="Layer_1" xmlns="http://www.w3.org/2000/svg" xmlns:xlink="http://www.w3.org/1999/xlink" x="0px" y="0px"
	 viewBox="0 0 290.8 290.8" style="enable-background:new 0 0 290.8 290.8;" xml:space="preserve">
<style type="text/css">
	.st0{fill:#FFFFFF;}
	.st1{fill:url(#SVGID_1_);}
	.st2{fill:url(#SVGID_00000052808710809047791180000006914967211148722334_);}
	.st3{fill:url(#SVGID_00000067955262304658298620000016751304903996750729_);}
	.st4{fill:url(#SVGID_00000066512998727508794020000000656265448911962283_);}
	.st5{fill:url(#SVGID_00000102532189107265346110000012666409667761783444_);}
	.st6{fill:url(#SVGID_00000171702237029226479880000016301869851251783589_);}
	.st7{fill:url(#SVGID_00000027573149390243896310000009134285884189027725_);}
	.st8{fill:url(#SVGID_00000067196899501823215550000017703183801035269018_);}
	.st9{fill:url(#SVGID_00000013912753157117823760000008563012924249385135_);}
	.st10{fill:url(#SVGID_00000015350863148685577090000008763258926250504607_);}
	.st11{fill:url(#SVGID_00000140714528218403875910000011329263762846885566_);}
	.st12{fill:url(#SVGID_00000010298357663031896780000013207939872197782707_);}
	.st13{fill:url(#SVGID_00000098184911266842402110000011243291714399695537_);}
	.st14{fill:url(#SVGID_00000132783129241137608510000017540992898320132749_);}
	.st15{fill:url(#SVGID_00000021812937978088329560000016104484487887643300_);}
	.st16{fill:url(#SVGID_00000163769204689204066160000002155535346423968159_);}
	.st17{fill:url(#SVGID_00000050636390483701410360000008663530538844593817_);}
	.st18{fill:url(#SVGID_00000046315372989925085500000003881283957068566195_);}
</style>
<rect class="st0" width="290.8" height="290.8"/>
<linearGradient id="SVGID_1_" gradientUnits="userSpaceOnUse" x1="68.884" y1="735.6859" x2="334.6917" y2="735.6859" gradientTransform="matrix(1 0 0 1 -44.69 -632.49)">
	<stop  offset="0" style="stop-color:#36003F"/>
	<stop  offset="1" style="stop-color:#60287D"/>
</linearGradient>
<path class="st1" d="M37.4,146.5L0,59.8h4.2L38,137.9l15.8-37L36.1,59.8h4.1L56,97.2l16.2-37.4h3.2l-17.7,41l16.1,37.4l34.5-78.4
	h3.1l-37.8,86.8l-18.1-41.7L37.4,146.5z"/>
<linearGradient id="SVGID_00000118386987352078746480000007416319369153388217_" gradientUnits="userSpaceOnUse" x1="63.1684" y1="734.9142" x2="328.9761" y2="734.9142" gradientTransform="matrix(1 0 0 1 -44.69 -632.49)">
	<stop  offset="0" style="stop-color:#36003F"/>
	<stop  offset="1" style="stop-color:#60287D"/>
</linearGradient>
<path style="fill:url(#SVGID_00000118386987352078746480000007416319369153388217_);" d="M176.4,59.8h3.8v85.3h-3.8v-32.5H118v32.5
	h-3.8V59.8h3.8v49.4h58.4L176.4,59.8L176.4,59.8z"/>
<linearGradient id="SVGID_00000087409951117627030690000011541056692393990815_" gradientUnits="userSpaceOnUse" x1="60.8822" y1="735.0857" x2="326.6899" y2="735.0857" gradientTransform="matrix(1 0 0 1 -44.69 -632.49)">
	<stop  offset="0" style="stop-color:#36003F"/>
	<stop  offset="1" style="stop-color:#60287D"/>
</linearGradient>
<path style="fill:url(#SVGID_00000087409951117627030690000011541056692393990815_);" d="M204.5,133.4c-8.6-8.9-12.9-19.3-12.9-31.1
	s4.3-22.1,13.1-30.8c8.7-8.7,19.1-13,31.4-13s22.6,4.3,31.3,13s13,18.9,13,30.9s-4.3,22.3-12.9,31.1c-8.6,8.9-18.8,13.3-30.7,13.3
	h-1.7C223.3,146.7,213.1,142.3,204.5,133.4z M276.5,102.5c0-11.2-3.9-20.7-11.9-28.7c-7.9-8-17.5-12-28.6-12c-11.2,0-20.7,4-28.7,12
	c-7.9,8-11.9,17.6-11.9,28.7c0,11.2,4,20.8,11.9,28.8c7.9,8.1,17.5,12.1,28.6,12.1s20.7-4,28.6-12.1
	C272.6,123.3,276.6,113.7,276.5,102.5L276.5,102.5z"/>
<linearGradient id="SVGID_00000086689461792982839950000007204931802727949471_" gradientUnits="userSpaceOnUse" x1="54.618" y1="829.67" x2="349.3332" y2="829.67" gradientTransform="matrix(1 0 0 1 -44.69 -632.49)">
	<stop  offset="2.000000e-02" style="stop-color:#36003F"/>
	<stop  offset="1" style="stop-color:#36003F"/>
</linearGradient>
<path style="fill:url(#SVGID_00000086689461792982839950000007204931802727949471_);" d="M35.8,162.9v2.7H20.2v65.9h-3v-65.9H1.4
	v-2.7H35.8z"/>
<linearGradient id="SVGID_00000072993074997804346760000002779485610528365192_" gradientUnits="userSpaceOnUse" x1="49.902" y1="829.67" x2="344.6172" y2="829.67" gradientTransform="matrix(1 0 0 1 -44.69 -632.49)">
	<stop  offset="2.000000e-02" style="stop-color:#36003F"/>
	<stop  offset="1" style="stop-color:#36003F"/>
</linearGradient>
<path style="fill:url(#SVGID_00000072993074997804346760000002779485610528365192_);" d="M39.8,162.9h3.9c5.9,0,11.1,2.2,15.6,6.5
	s6.7,9.5,6.7,15.3c0,5.9-2.3,11-6.8,15.3c-4.5,4.3-9.5,6.5-14.7,6.5h-0.6l23.6,24.9h-3.9l-20.8-21.8v21.8h-2.9V162.9z M42.7,203.9
	h1.7c5,0,9.3-1.9,13.1-5.7c3.7-3.5,5.7-8.4,5.6-13.4c0-5.2-1.9-9.7-5.8-13.5s-8.4-5.8-13.3-5.8h-1.2V203.9z"/>
<linearGradient id="SVGID_00000116915874793504457610000013994407370640997302_" gradientUnits="userSpaceOnUse" x1="48.723" y1="828.8447" x2="343.4381" y2="828.8447" gradientTransform="matrix(1 0 0 1 -44.69 -632.49)">
	<stop  offset="2.000000e-02" style="stop-color:#36003F"/>
	<stop  offset="1" style="stop-color:#36003F"/>
</linearGradient>
<path style="fill:url(#SVGID_00000116915874793504457610000013994407370640997302_);" d="M103.6,161.2l34.3,70.2h-3.2l-13-26.2H85
	l-12.8,26.2h-2.8L103.6,161.2z M103.3,167.6l-17.1,35.1h34.4L103.3,167.6z"/>
<linearGradient id="SVGID_00000109028245559063766550000008731596210758920625_" gradientUnits="userSpaceOnUse" x1="38.5031" y1="830.4363" x2="333.2182" y2="830.4363" gradientTransform="matrix(1 0 0 1 -44.69 -632.49)">
	<stop  offset="2.000000e-02" style="stop-color:#36003F"/>
	<stop  offset="1" style="stop-color:#36003F"/>
</linearGradient>
<path style="fill:url(#SVGID_00000109028245559063766550000008731596210758920625_);" d="M151.4,233l-34.1-70.1h3.3l31.1,63.5
	l30.9-63.5h2.9L151.4,233z"/>
<linearGradient id="SVGID_00000119814293662569358480000013125541171684855947_" gradientUnits="userSpaceOnUse" x1="34.9001" y1="829.6405" x2="329.6153" y2="829.6405" gradientTransform="matrix(1 0 0 1 -44.69 -632.49)">
	<stop  offset="2.000000e-02" style="stop-color:#36003F"/>
	<stop  offset="1" style="stop-color:#36003F"/>
</linearGradient>
<path style="fill:url(#SVGID_00000119814293662569358480000013125541171684855947_);" d="M189.2,162.9h24.6v2.7h-21.5v37.3h18v2.7
	h-18v23.3h21.5v2.7h-24.6V162.9z"/>
<linearGradient id="SVGID_00000094602130233713431370000008363999691954295717_" gradientUnits="userSpaceOnUse" x1="30.7736" y1="829.67" x2="325.4888" y2="829.67" gradientTransform="matrix(1 0 0 1 -44.69 -632.49)">
	<stop  offset="2.000000e-02" style="stop-color:#36003F"/>
	<stop  offset="1" style="stop-color:#36003F"/>
</linearGradient>
<path style="fill:url(#SVGID_00000094602130233713431370000008363999691954295717_);" d="M225,162.9v65.9h21.2v2.7h-24.2v-68.6H225z
	"/>
<linearGradient id="SVGID_00000056429233399632163810000008043941419128574851_" gradientUnits="userSpaceOnUse" x1="27.2378" y1="829.611" x2="321.9531" y2="829.611" gradientTransform="matrix(1 0 0 1 -44.69 -632.49)">
	<stop  offset="2.000000e-02" style="stop-color:#36003F"/>
	<stop  offset="1" style="stop-color:#36003F"/>
</linearGradient>
<path style="fill:url(#SVGID_00000056429233399632163810000008043941419128574851_);" d="M273.2,166.6c-2.4-1.5-5.2-2.2-8.1-2.2
	c-2.8-0.1-5.5,0.9-7.6,2.8c-2.1,1.9-3.2,4.4-3.2,7.6v0.5c0,3.8,2.1,7.3,6.4,10.5c2,1.4,4,2.8,6.2,3.9c2.3,1.3,4.6,2.7,6.8,4.2
	c2.2,1.4,4.3,3,6.2,4.8c1.9,1.8,3.5,3.8,4.6,6.2c1.2,2.5,1.8,5.2,1.8,8v0.9c0,5.8-1.9,10.4-5.9,13.8c-3.9,3.4-8.8,5.1-14.6,5.1
	c-7.6,0-13.6-3.1-17.7-9.4v-5c1.5,3.4,3.9,6.3,7,8.4c3.1,2.2,6.9,3.2,11.5,3.2c4.4,0.1,8.6-1.5,11.9-4.4c3.4-2.9,5-6.8,5-11.7v-0.5
	c0-2.9-0.8-5.8-2.4-8.4c-1.5-2.5-3.5-4.6-6-6.2c-2.4-1.6-5-3.3-7.8-5.1c-2.8-1.8-5.4-3.4-7.8-5c-2.4-1.5-4.4-3.5-6-5.8
	c-1.5-2.2-2.4-4.9-2.4-7.6v-0.6c0-4.2,1.4-7.5,4.1-9.8c2.8-2.2,6.1-3.4,10.1-3.4c5.6,0,10,2.1,13.3,6.2v4.7
	C277.6,170.1,275.6,168,273.2,166.6z"/>
<linearGradient id="SVGID_00000133487835496449429590000013717128556591269774_" gradientUnits="userSpaceOnUse" x1="241.5451" y1="748.3684" x2="318.5623" y2="708.7253" gradientTransform="matrix(1 0 0 1 -44.69 -632.49)">
	<stop  offset="0" style="stop-color:#36003F"/>
	<stop  offset="0.33" style="stop-color:#60287D"/>
	<stop  offset="0.74" style="stop-color:#004E82"/>
	<stop  offset="1" style="stop-color:#3E80C2"/>
</linearGradient>
<path style="fill:url(#SVGID_00000133487835496449429590000013717128556591269774_);" d="M273.1,85l1.9,5.4c5,1.5,7.9,3.4,7.9,5.4
	c0,1.9-2.6,3.7-7.1,5.1l0,0c-0.7,0.2-1.5,0.5-2.4,0.7l0,0c-0.9,0.2-1.7,0.5-2.7,0.7l0,0c-8.6,1.9-21,3.2-34.8,3.2
	c-13.8,0-26.2-1.3-34.8-3.2l0,0c-0.9-0.2-1.8-0.5-2.7-0.7l0,0c-0.9-0.2-1.7-0.5-2.4-0.7l0,0c-4.5-1.5-7.1-3.3-7.1-5.1
	c0-2,2.9-3.9,7.9-5.4l1.9-5.4c-10.5,2.7-17,6.5-17,10.7s6.5,8,16.8,10.7l0.3,0.1c1.7,0.5,3.5,0.9,5.4,1.2l0.5,0.1
	c8.2,1.5,16.4,2.4,24.7,2.6h0.2c2.1,0.1,4.1,0.1,6.2,0.1c1.9,0,3.8,0,5.6-0.1l0,0c1.8-0.1,3.7-0.1,5.4-0.2l0,0
	c24.6-1.4,43.1-7.4,43.1-14.5C290.1,91.5,283.5,87.7,273.1,85z"/>
<linearGradient id="SVGID_00000078747595575704184020000001533154051022460034_" gradientUnits="userSpaceOnUse" x1="237.1338" y1="739.7964" x2="314.1509" y2="700.1476" gradientTransform="matrix(1 0 0 1 -44.69 -632.49)">
	<stop  offset="0" style="stop-color:#36003F"/>
	<stop  offset="0.33" style="stop-color:#60287D"/>
	<stop  offset="0.74" style="stop-color:#004E82"/>
	<stop  offset="1" style="stop-color:#3E80C2"/>
</linearGradient>
<path style="fill:url(#SVGID_00000078747595575704184020000001533154051022460034_);" d="M245.3,86.4c-0.9-0.1-1.6,0.5-1.7,1.3
	c-0.1,0.5,0.1,1,0.5,1.4c0,0-3.4,3.8-4.3,5.1c-0.5,0.7-0.6,1.1-1.5,2.6l-1.7,3c-0.1,0-0.2,0-0.2-0.1c-0.1,0-0.2-0.1-0.2-0.1
	l-0.5-3.4c-0.2-1.7-0.6-3.4-0.9-5.1c-0.3-1.6-0.7-3.1-1.2-4.7l-2.3-8.1c0.8-0.3,1.2-1.1,0.9-1.9c-0.2-0.5-0.6-0.9-1.1-1l-1.8-5.7
	l0.6,5.9c-0.7,0.5-0.8,1.5-0.3,2.1c0.3,0.4,0.8,0.6,1.3,0.6l1.3,8.3c0.2,1.6,0.5,3.2,0.9,4.8c0.3,1.7,0.8,3.4,1.3,5l1,3.4
	c-0.1,0-0.1,0.1-0.1,0.1c-0.1,0.1-0.2,0.1-0.2,0.2c-0.1,0.1-0.2,0.2-0.2,0.2c0,0.1-0.1,0.1-0.1,0.1c-0.1,0.1-0.1,0.1-0.1,0.2
	c0,0.1-0.1,0.1-0.1,0.1c-0.1,0.1-0.1,0.3-0.1,0.5c0,0.1,0,0.1,0,0.2c0,0.2,0,0.3,0,0.5v0.1c0.1,0.3,0.2,0.7,0.5,0.9l0,0
	c0.3,0.3,0.6,0.5,1,0.5l0,0c0.3,0.1,0.7,0,1.1-0.1l0,0c0.3-0.1,0.6-0.3,0.8-0.7v-0.1c0.1-0.1,0.1-0.3,0.2-0.4c0-0.1,0.1-0.1,0.1-0.2
	c0.1-0.2,0.1-0.3,0.1-0.5c0-0.1,0-0.1,0-0.1c0-0.1,0-0.1,0-0.2s-0.1-0.1-0.1-0.1c-0.1-0.1-0.1-0.2-0.1-0.3s-0.1-0.2-0.2-0.3
	c-0.1-0.1-0.1-0.1-0.1-0.1l2.1-2.7c1.1-1.4,1.3-1.5,1.8-2.3c0.9-1.4,3.1-5.9,3.1-5.9c0.7,0.3,1.7,0.1,2.1-0.7c0.2-0.5,0.2-1-0.1-1.4
	l2.8-5.3L245.3,86.4z M229.5,76.8c-0.1-0.6,0.2-1.1,0.8-1.3c0.6-0.1,1.1,0.2,1.3,0.8c0.1,0.6-0.2,1.1-0.8,1.3l0,0
	C230.2,77.7,229.7,77.4,229.5,76.8L229.5,76.8z M236.1,102c-0.1,0-0.1,0-0.2,0c-0.1,0-0.1-0.1-0.2-0.1c-0.2-0.1-0.3-0.5-0.1-0.6
	c0.1-0.1,0.2-0.2,0.3-0.2l0,0c0.1,0,0.1,0,0.2,0c0.1,0,0.1,0.1,0.1,0.1l0,0c0.1,0.1,0.2,0.2,0.2,0.3
	C236.5,101.6,236.3,101.9,236.1,102L236.1,102z M246.1,88.2c-0.3,0.5-1,0.6-1.4,0.3c-0.5-0.3-0.6-1-0.3-1.4c0.3-0.5,1-0.6,1.4-0.3
	C246.3,87.2,246.4,87.8,246.1,88.2L246.1,88.2z"/>
<linearGradient id="SVGID_00000182521962821938149150000011313656675105412774_" gradientUnits="userSpaceOnUse" x1="238.1195" y1="741.7184" x2="315.1367" y2="702.0695" gradientTransform="matrix(1 0 0 1 -44.69 -632.49)">
	<stop  offset="0" style="stop-color:#36003F"/>
	<stop  offset="0.33" style="stop-color:#60287D"/>
	<stop  offset="0.74" style="stop-color:#004E82"/>
	<stop  offset="1" style="stop-color:#3E80C2"/>
</linearGradient>
<path style="fill:url(#SVGID_00000182521962821938149150000011313656675105412774_);" d="M203.8,100.7c2.9,0.6,6.1,1,9.5,1.4
	c0.2-0.1,0.4-0.4,0.4-0.6l0,0c0-0.4-0.3-0.8-0.8-0.8H203.8z"/>
<linearGradient id="SVGID_00000122711613858639377170000006255673042578321595_" gradientUnits="userSpaceOnUse" x1="238.6116" y1="742.6717" x2="315.6288" y2="703.0228" gradientTransform="matrix(1 0 0 1 -44.69 -632.49)">
	<stop  offset="0" style="stop-color:#36003F"/>
	<stop  offset="0.33" style="stop-color:#60287D"/>
	<stop  offset="0.74" style="stop-color:#004E82"/>
	<stop  offset="1" style="stop-color:#3E80C2"/>
</linearGradient>
<path style="fill:url(#SVGID_00000122711613858639377170000006255673042578321595_);" d="M199,99.7c0.3-3.9,1.3-7.8,2.7-11.4
	l0.1,0.1l6.6,2.7c0.4,0.2,0.9,0.1,1.1-0.3c0.2-0.4,0.1-0.9-0.3-1.1c-0.1-0.1-0.1-0.1-0.2-0.1l-6.6-2.7h-0.1
	c1.8-3.9,4.3-7.4,7.3-10.4l4.9,4.8c0.3,0.3,0.8,0.3,1.1,0c0.3-0.3,0.3-0.8,0-1.1l-4.8-4.8c3.1-2.9,6.7-5.2,10.6-6.9l2.5,6.1
	c0.1,0.4,0.6,0.6,1,0.5s0.6-0.6,0.5-1c0-0.1-0.1-0.1-0.1-0.1l-2.4-6.1c3.9-1.5,8.1-2.3,12.2-2.3v13c0,0.4,0.3,0.8,0.8,0.8l0,0l0,0
	c0.4,0,0.8-0.3,0.8-0.7l0,0v-13c4.2,0.1,8.3,0.9,12.3,2.3l-2.5,6.1c-0.2,0.4,0,0.9,0.4,1c0.4,0.2,0.9,0,1-0.4l0,0l2.5-6.1
	c3.9,1.7,7.5,4,10.6,6.9l-4.8,4.8c-0.3,0.3-0.3,0.8,0.1,1.1c0.3,0.3,0.7,0.3,1,0l4.8-4.8c3,3,5.5,6.6,7.3,10.4h-0.1l-6.5,2.7
	c-0.4,0.2-0.5,0.7-0.3,1.1c0.2,0.3,0.5,0.5,0.9,0.4l6.6-2.7c0,0,0.1,0,0.1-0.1c1.5,3.7,2.5,7.5,2.7,11.4c1-0.3,1.9-0.5,2.9-0.8
	c-2.1-21.9-21.5-38.1-43.5-36c-19.1,1.8-34.2,16.9-36,36C197.1,99.1,198,99.4,199,99.7z"/>
<linearGradient id="SVGID_00000027603004427648334140000005913136849710511538_" gradientUnits="userSpaceOnUse" x1="249.3361" y1="763.5042" x2="326.3532" y2="723.8553" gradientTransform="matrix(1 0 0 1 -44.69 -632.49)">
	<stop  offset="0" style="stop-color:#36003F"/>
	<stop  offset="0.33" style="stop-color:#60287D"/>
	<stop  offset="0.74" style="stop-color:#004E82"/>
	<stop  offset="1" style="stop-color:#3E80C2"/>
</linearGradient>
<path style="fill:url(#SVGID_00000027603004427648334140000005913136849710511538_);" d="M258.2,101.5L258.2,101.5
	c0,0.3,0.1,0.5,0.3,0.7c3.5-0.4,6.7-0.9,9.5-1.4h-9.1C258.5,100.8,258.2,101.1,258.2,101.5z"/>
<linearGradient id="SVGID_00000110452826093000591970000007162299426812081309_" gradientUnits="userSpaceOnUse" x1="250.3766" y1="765.5211" x2="327.3938" y2="725.8779" gradientTransform="matrix(1 0 0 1 -44.69 -632.49)">
	<stop  offset="0" style="stop-color:#36003F"/>
	<stop  offset="0.33" style="stop-color:#60287D"/>
	<stop  offset="0.74" style="stop-color:#004E82"/>
	<stop  offset="1" style="stop-color:#3E80C2"/>
</linearGradient>
<path style="fill:url(#SVGID_00000110452826093000591970000007162299426812081309_);" d="M271.9,110.8c0.1,4.6-2.6,8.9-6.8,10.7
	c-0.6,0.3-1.3,0.5-2,0.5c0.7-0.3,1.2-1.1,1-1.9c-0.2-0.8-1-1.3-1.8-1.3c-1,0.1-1.8,0.9-2.4,1.8c-0.6,0.9-1.1,1.8-1.9,2.3
	c-1.8,1-4.1-0.5-8.4,4.6v0.1c-0.9,1.1-2.6-0.1-2.1-1.4c0.8-1.6,1.9-3.1,3.1-4.3c1.9-2.6-0.6-5.2,2.3-9.3c0.2-0.3,0.6-0.7,0.9-0.9
	c-5.6,0.5-11.7,0.9-17.9,0.9c-4.3,0-8.5-0.1-12.5-0.4c0.1,1.5,0.9,2.8,2.1,3.7c3.7,2.5,3.9,8.4-0.2,9.5s-11.3-1.3-13.5-3.9
	c-1.8-2.1-3.5-7.1-3.9-11.1c-3.8-0.6-7.7-1.5-11.4-2.6c2.8,21.9,22.7,37.4,44.6,34.6c18.1-2.3,32.3-16.5,34.6-34.6
	c-1.2,0.3-2.4,0.7-3.7,1C271.9,109.3,271.9,110.1,271.9,110.8z M243.9,116.5c1.8,0,4.3,1.5,4.3,3.3c0,1.8-2.6,3.3-4.3,3.3
	c-1.8,0-5.5-1.5-5.5-3.3C238.5,118,242.2,116.5,243.9,116.5z M239.8,124.5c0.7,0,1.3,0.6,1.3,1.3c0,0.7-0.6,1.3-1.3,1.3
	c-0.7,0-1.3-0.6-1.3-1.3l0,0C238.5,125.1,239,124.5,239.8,124.5L239.8,124.5z M235.8,139.6c-7.4,0-14.6-2.2-20.7-6.3
	c5.7-1.7,11.4-0.6,15.4,0.6c3.3,1,6.8,0.9,10-0.3c5.3-1.9,13.8-3.9,18.1-1.1C252.2,137,244.1,139.6,235.8,139.6L235.8,139.6z"/>
<linearGradient id="SVGID_00000162319091540329407170000002422540431850916754_" gradientUnits="userSpaceOnUse" x1="0" y1="10.2783" x2="290.8229" y2="10.2783">
	<stop  offset="0" style="stop-color:#36003F"/>
	<stop  offset="0.33" style="stop-color:#60287D"/>
	<stop  offset="0.74" style="stop-color:#004E82"/>
	<stop  offset="1" style="stop-color:#3E80C2"/>
</linearGradient>
<rect style="fill:url(#SVGID_00000162319091540329407170000002422540431850916754_);" width="290.8" height="20.6"/>
<linearGradient id="SVGID_00000090992334711409231690000008629583928390928797_" gradientUnits="userSpaceOnUse" x1="0" y1="280.5447" x2="290.8229" y2="280.5447">
	<stop  offset="0" style="stop-color:#36003F"/>
	<stop  offset="0.33" style="stop-color:#60287D"/>
	<stop  offset="0.74" style="stop-color:#004E82"/>
	<stop  offset="1" style="stop-color:#3E80C2"/>
</linearGradient>
<rect y="270.3" style="fill:url(#SVGID_00000090992334711409231690000008629583928390928797_);" width="290.8" height="20.6"/>
</svg>
