<?xml version="1.0" encoding="utf-8"?>
<!-- Generator: Adobe Illustrator 26.0.1, SVG Export Plug-In . SVG Version: 6.00 Build 0)  -->
<svg version="1.1" id="Layer_1" xmlns="http://www.w3.org/2000/svg" xmlns:xlink="http://www.w3.org/1999/xlink" x="0px" y="0px"
	 viewBox="0 0 521.6 300.8" style="enable-background:new 0 0 521.6 300.8;" xml:space="preserve">
<style type="text/css">
	.st0{fill:url(#SVGID_1_);}
	.st1{fill:url(#SVGID_00000168816099019681467410000014026440186872820411_);}
	.st2{fill:url(#SVGID_00000162321614129236189310000013906024667735835281_);}
	.st3{fill:url(#SVGID_00000109710765730770649960000007696982267254713475_);}
	.st4{fill:url(#SVGID_00000088819162295184859680000018225996165352766338_);}
	.st5{fill:url(#SVGID_00000011010664336178983200000012126382259275148969_);}
	.st6{fill:url(#SVGID_00000157996222652040421170000014265769980950310322_);}
	.st7{fill:url(#SVGID_00000086660739897292293370000014509358337988201382_);}
	.st8{fill:url(#SVGID_00000113328498412861255980000001376108685917371316_);}
	.st9{fill:url(#SVGID_00000121242643093671086490000008787756293765245100_);}
	.st10{fill:url(#SVGID_00000006693582163674139520000013423248293407394719_);}
	.st11{fill:url(#SVGID_00000168833105989035924040000016440654403031820422_);}
	.st12{fill:url(#SVGID_00000118383024915806546700000002102555540261306767_);}
	.st13{fill:url(#SVGID_00000176727709366972671790000000372463520717631403_);}
	.st14{fill:url(#SVGID_00000103954169437713740430000016620430227105074058_);}
	.st15{fill:url(#SVGID_00000040539788184832321120000014563890348270626699_);}
</style>
<linearGradient id="SVGID_1_" gradientUnits="userSpaceOnUse" x1="87.02" y1="81.27" x2="552.08" y2="81.27" gradientTransform="matrix(1 0 0 -1 -44.69 159.51)">
	<stop  offset="0" style="stop-color:#36003F"/>
	<stop  offset="1" style="stop-color:#60287D"/>
</linearGradient>
<path class="st0" d="M65.4,154.1L0,2.3h7.4L66.4,139l27.6-64.7l-30.8-72h7.2l27.6,65.4l28.4-65.4h5.6l-31,71.8l28.2,65.4L189.6,2.4
	h5.4l-66.2,151.8L97.1,81.3L65.4,154.1z"/>
<linearGradient id="SVGID_00000112591446393159504580000016932591492336849576_" gradientUnits="userSpaceOnUse" x1="87.02" y1="82.58" x2="552.08" y2="82.58" gradientTransform="matrix(1 0 0 -1 -44.69 159.51)">
	<stop  offset="0" style="stop-color:#36003F"/>
	<stop  offset="1" style="stop-color:#60287D"/>
</linearGradient>
<path style="fill:url(#SVGID_00000112591446393159504580000016932591492336849576_);" d="M318.6,2.3h6.6v149.2h-6.6V94.6H216.4v56.9
	h-6.6V2.3h6.6v86.5h102.2V2.3z"/>
<linearGradient id="SVGID_00000121248772944330011910000002098959949166305415_" gradientUnits="userSpaceOnUse" x1="87.02" y1="82.33" x2="552.08" y2="82.33" gradientTransform="matrix(1 0 0 -1 -44.69 159.51)">
	<stop  offset="0" style="stop-color:#36003F"/>
	<stop  offset="1" style="stop-color:#60287D"/>
</linearGradient>
<path style="fill:url(#SVGID_00000121248772944330011910000002098959949166305415_);" d="M371.8,131.1c-15-15.5-22.5-33.7-22.5-54.4
	s7.6-38.7,22.9-53.9C387.4,7.6,405.7,0,427.1,0s39.6,7.6,54.7,22.7c15.1,15.1,22.7,33.1,22.7,54s-7.5,39.1-22.5,54.5
	c-15,15.5-32.9,23.2-53.7,23.2h-3C404.7,154.4,386.9,146.6,371.8,131.1z M497.8,77.1c0-19.6-6.9-36.3-20.8-50.3
	c-13.9-14-30.6-21-50.1-21c-19.6,0-36.3,7-50.2,21c-13.9,14-20.9,30.8-20.9,50.3c0,19.6,7,36.4,20.9,50.4
	c13.9,14.1,30.6,21.1,50.1,21.1c19.5,0,36.2-7,50.1-21.1C490.9,113.5,497.9,96.7,497.8,77.1L497.8,77.1z"/>
<linearGradient id="SVGID_00000038400800985140779120000009496282655489101481_" gradientUnits="userSpaceOnUse" x1="64.8368" y1="-78.4362" x2="564.7753" y2="-78.4362" gradientTransform="matrix(1 0 0 -1 -44.69 159.51)">
	<stop  offset="2.000000e-02" style="stop-color:#36003F"/>
	<stop  offset="1" style="stop-color:#36003F"/>
</linearGradient>
<path style="fill:url(#SVGID_00000038400800985140779120000009496282655489101481_);" d="M64,179.8v4.5H37.5v111.8h-5.1V184.3H5.6
	v-4.5L64,179.8z"/>
<linearGradient id="SVGID_00000116226064972190544360000003891715948947361667_" gradientUnits="userSpaceOnUse" x1="64.8368" y1="-78.4362" x2="564.7753" y2="-78.4362" gradientTransform="matrix(1 0 0 -1 -44.69 159.51)">
	<stop  offset="2.000000e-02" style="stop-color:#36003F"/>
	<stop  offset="1" style="stop-color:#36003F"/>
</linearGradient>
<path style="fill:url(#SVGID_00000116226064972190544360000003891715948947361667_);" d="M78.8,179.8h6.7c10,0,18.8,3.7,26.4,11.1
	c7.6,7.4,11.4,16.1,11.4,26c0,10-3.9,18.6-11.6,26c-7.7,7.3-16.1,11-24.9,11h-1.1l40,42.2h-6.7l-35.2-36.9v36.9h-5V179.8z
	 M83.8,249.4h2.8c8.4,0,15.8-3.2,22.2-9.6c6.2-5.9,9.6-14.2,9.5-22.7c0-8.8-3.3-16.4-9.9-22.9c-6.6-6.5-14.2-9.8-22.6-9.8h-2
	L83.8,249.4z"/>
<linearGradient id="SVGID_00000143582924949994298800000015042623702671708827_" gradientUnits="userSpaceOnUse" x1="64.8368" y1="-77.0419" x2="564.7753" y2="-77.0419" gradientTransform="matrix(1 0 0 -1 -44.69 159.51)">
	<stop  offset="2.000000e-02" style="stop-color:#36003F"/>
	<stop  offset="1" style="stop-color:#36003F"/>
</linearGradient>
<path style="fill:url(#SVGID_00000143582924949994298800000015042623702671708827_);" d="M189,177l58.1,119.1h-5.4l-22-44.4h-62.2
	l-21.7,44.4H131L189,177z M188.5,187.7l-29,59.5h58.3L188.5,187.7z"/>
<linearGradient id="SVGID_00000075136121390426824600000006885856582356788385_" gradientUnits="userSpaceOnUse" x1="55.5003" y1="-79.7512" x2="555.4388" y2="-79.7512" gradientTransform="matrix(1 0 0 -1 -44.69 159.51)">
	<stop  offset="2.000000e-02" style="stop-color:#36003F"/>
	<stop  offset="1" style="stop-color:#36003F"/>
</linearGradient>
<path style="fill:url(#SVGID_00000075136121390426824600000006885856582356788385_);" d="M278.2,298.7l-57.8-118.9h5.6l52.7,107.7
	l52.4-107.7h5L278.2,298.7z"/>
<linearGradient id="SVGID_00000144330129028523948440000007294481161330623626_" gradientUnits="userSpaceOnUse" x1="51.3885" y1="-78.4467" x2="551.327" y2="-78.4467" gradientTransform="matrix(1 0 0 -1 -44.69 159.51)">
	<stop  offset="2.000000e-02" style="stop-color:#36003F"/>
	<stop  offset="1" style="stop-color:#36003F"/>
</linearGradient>
<path style="fill:url(#SVGID_00000144330129028523948440000007294481161330623626_);" d="M344.3,179.8H386v4.5h-36.5v63.2H380v4.5
	h-30.5v39.5H386v4.5h-41.7V179.8z"/>
<linearGradient id="SVGID_00000163756667075991844690000012127895917669152669_" gradientUnits="userSpaceOnUse" x1="51.3885" y1="-78.4362" x2="551.327" y2="-78.4362" gradientTransform="matrix(1 0 0 -1 -44.69 159.51)">
	<stop  offset="2.000000e-02" style="stop-color:#36003F"/>
	<stop  offset="1" style="stop-color:#36003F"/>
</linearGradient>
<path style="fill:url(#SVGID_00000163756667075991844690000012127895917669152669_);" d="M411.9,179.8v111.8h35.9v4.5h-41V179.8
	H411.9z"/>
<linearGradient id="SVGID_00000044175293725601179000000010091256748897637792_" gradientUnits="userSpaceOnUse" x1="45.3906" y1="-78.5101" x2="545.3292" y2="-78.5101" gradientTransform="matrix(1 0 0 -1 -44.69 159.51)">
	<stop  offset="2.000000e-02" style="stop-color:#36003F"/>
	<stop  offset="1" style="stop-color:#36003F"/>
</linearGradient>
<path style="fill:url(#SVGID_00000044175293725601179000000010091256748897637792_);" d="M493.7,186c-4.1-2.5-8.9-3.8-13.7-3.7
	c-4.8-0.1-9.4,1.6-12.9,4.7c-3.6,3.2-5.4,7.5-5.4,12.9v0.8c0,6.5,3.6,12.4,10.9,17.8c3.4,2.4,6.8,4.7,10.5,6.7
	c3.9,2.2,7.8,4.6,11.6,7.1c3.7,2.4,7.3,5.1,10.6,8.1c3.2,3,5.9,6.5,7.8,10.5c2,4.3,3.1,8.9,3,13.6v1.6c0,9.8-3.3,17.6-10,23.4
	c-6.7,5.8-14.9,8.7-24.7,8.7c-12.9,0-23-5.3-30.1-16v-8.4c2.6,5.8,6.7,10.7,11.9,14.3c5.2,3.7,11.7,5.5,19.5,5.5
	c7.4,0.1,14.6-2.5,20.2-7.4c5.7-5,8.5-11.6,8.5-19.8v-0.9c0-5-1.4-9.9-4-14.2c-2.6-4.2-6-7.8-10.1-10.6c-4-2.7-8.4-5.6-13.2-8.6
	c-4.8-3-9.1-5.8-13.2-8.4c-4-2.5-7.4-5.9-10.1-9.8c-2.6-3.8-4.1-8.3-4-12.9v-1.1c0-7.2,2.3-12.8,7-16.6c4.7-3.8,10.4-5.8,17.2-5.8
	c9.5,0,17,3.5,22.6,10.6v7.9C501.2,192,497.8,188.5,493.7,186z"/>
<linearGradient id="SVGID_00000000185323959985517110000000454503081025734576_" gradientUnits="userSpaceOnUse" x1="403.1212" y1="59.0483" x2="537.8712" y2="128.4083" gradientTransform="matrix(1 0 0 -1 -44.69 159.51)">
	<stop  offset="0" style="stop-color:#36003F"/>
	<stop  offset="0.33" style="stop-color:#60287D"/>
	<stop  offset="0.74" style="stop-color:#004E82"/>
	<stop  offset="1" style="stop-color:#3E80C2"/>
</linearGradient>
<path style="fill:url(#SVGID_00000000185323959985517110000000454503081025734576_);" d="M491.8,46.4l3.4,9.4
	c8.8,2.7,13.9,6,13.9,9.5c0,3.3-4.6,6.4-12.5,9l0,0c-1.3,0.4-2.7,0.9-4.2,1.3l0,0c-1.5,0.4-3,0.8-4.7,1.2l0,0
	c-15,3.4-36.8,5.6-60.9,5.6s-45.8-2.2-60.9-5.6l0,0c-1.6-0.4-3.2-0.8-4.7-1.2l0,0c-1.5-0.4-2.9-0.8-4.2-1.3l0,0
	c-7.9-2.6-12.5-5.7-12.5-9c0-3.5,5.1-6.8,13.9-9.5l3.4-9.4c-18.3,4.7-29.7,11.4-29.7,18.8s11.3,14,29.4,18.8l0.5,0.1
	c3,0.8,6.2,1.5,9.5,2.1l0.8,0.1c14.3,2.6,28.7,4.2,43.3,4.6h0.4c3.6,0.1,7.2,0.2,10.9,0.2c3.3,0,6.6,0,9.8-0.1l0,0
	c3.2-0.1,6.4-0.2,9.5-0.4l0,0c43-2.4,75.4-12.9,75.4-25.4C521.6,57.8,510.1,51.1,491.8,46.4z"/>
<linearGradient id="SVGID_00000117647629131286118760000018251003174597161103_" gradientUnits="userSpaceOnUse" x1="395.3753" y1="74.0997" x2="530.1253" y2="143.4697" gradientTransform="matrix(1 0 0 -1 -44.69 159.51)">
	<stop  offset="0" style="stop-color:#36003F"/>
	<stop  offset="0.33" style="stop-color:#60287D"/>
	<stop  offset="0.74" style="stop-color:#004E82"/>
	<stop  offset="1" style="stop-color:#3E80C2"/>
</linearGradient>
<path style="fill:url(#SVGID_00000117647629131286118760000018251003174597161103_);" d="M443.2,48.8c-1.5-0.2-2.8,0.8-3,2.2
	c-0.1,0.9,0.2,1.8,0.9,2.4c0,0-6,6.6-7.5,9c-0.8,1.3-1.1,1.9-2.6,4.5l-3,5.3c-0.1,0-0.3,0-0.4-0.1c-0.1,0-0.3-0.1-0.4-0.1l-0.9-6
	c-0.4-3-1-6-1.6-9c-0.6-2.8-1.3-5.5-2.1-8.2l-4.1-14.2c1.4-0.5,2.1-2,1.6-3.4c-0.3-0.9-1-1.5-1.9-1.7l-3.2-9.9l1,10.4
	c-1.2,0.9-1.4,2.6-0.5,3.7c0.5,0.7,1.4,1.1,2.3,1l2.2,14.6c0.4,2.8,0.9,5.6,1.5,8.4c0.6,3,1.4,5.9,2.3,8.8l1.7,5.9
	c-0.1,0-0.1,0.1-0.2,0.1c-0.1,0.1-0.3,0.2-0.4,0.3c-0.1,0.1-0.3,0.3-0.4,0.4c0,0.1-0.1,0.1-0.2,0.2c-0.1,0.1-0.1,0.2-0.2,0.3
	c0,0.1-0.1,0.1-0.1,0.2c-0.1,0.2-0.2,0.5-0.2,0.8c0,0.1,0,0.2,0,0.3c0,0.3,0,0.5,0,0.8c0,0,0,0.1,0,0.1c0.1,0.6,0.4,1.2,0.9,1.6l0,0
	c0.5,0.5,1,0.8,1.7,0.9l0,0c0.6,0.1,1.3,0,1.9-0.2l0,0c0.6-0.2,1.1-0.6,1.4-1.2c0,0,0-0.1,0-0.1c0.1-0.2,0.2-0.5,0.3-0.7
	c0-0.1,0.1-0.2,0.1-0.3c0.1-0.3,0.1-0.5,0.1-0.8c0-0.1,0-0.2,0-0.2c0-0.1,0-0.2,0-0.4s-0.1-0.1-0.1-0.2c-0.1-0.2-0.1-0.3-0.2-0.5
	c-0.1-0.2-0.2-0.3-0.3-0.5s-0.1-0.1-0.1-0.2l3.7-4.8c1.9-2.4,2.2-2.7,3.2-4.1c1.6-2.4,5.4-10.4,5.4-10.4c1.3,0.6,2.9,0.1,3.6-1.2
	c0.4-0.8,0.4-1.8-0.1-2.5l4.9-9.2L443.2,48.8z M415.6,32.1c-0.2-1,0.4-1.9,1.4-2.2c1-0.2,1.9,0.4,2.2,1.4c0.2,1-0.4,1.9-1.4,2.2
	c0,0,0,0,0,0C416.8,33.7,415.8,33.1,415.6,32.1L415.6,32.1z M427,76.1c-0.1,0-0.2,0-0.3,0c-0.1,0-0.2-0.1-0.3-0.1
	c-0.4-0.2-0.5-0.8-0.2-1.1c0.1-0.2,0.3-0.3,0.5-0.3l0,0c0.1,0,0.2,0,0.3,0c0.1,0,0.2,0.1,0.2,0.1l0,0c0.2,0.1,0.3,0.3,0.4,0.5
	C427.7,75.5,427.4,76,427,76.1L427,76.1z M444.5,52.1c-0.6,0.8-1.7,1-2.5,0.5c-0.8-0.6-1-1.7-0.5-2.5c0.6-0.8,1.7-1,2.5-0.5
	C444.9,50.2,445.1,51.3,444.5,52.1L444.5,52.1z"/>
<linearGradient id="SVGID_00000069391753602400792620000007464844880029944234_" gradientUnits="userSpaceOnUse" x1="397.1491" y1="70.6417" x2="531.8991" y2="140.0117" gradientTransform="matrix(1 0 0 -1 -44.69 159.51)">
	<stop  offset="0" style="stop-color:#36003F"/>
	<stop  offset="0.33" style="stop-color:#60287D"/>
	<stop  offset="0.74" style="stop-color:#004E82"/>
	<stop  offset="1" style="stop-color:#3E80C2"/>
</linearGradient>
<path style="fill:url(#SVGID_00000069391753602400792620000007464844880029944234_);" d="M370.6,73.9c5,1,10.6,1.8,16.7,2.5
	c0.4-0.2,0.7-0.7,0.7-1.1l0,0c0-0.7-0.6-1.4-1.4-1.4L370.6,73.9z"/>
<linearGradient id="SVGID_00000152955142176651051430000008771295884586768785_" gradientUnits="userSpaceOnUse" x1="397.9513" y1="69.0881" x2="532.7013" y2="138.4581" gradientTransform="matrix(1 0 0 -1 -44.69 159.51)">
	<stop  offset="0" style="stop-color:#36003F"/>
	<stop  offset="0.33" style="stop-color:#60287D"/>
	<stop  offset="0.74" style="stop-color:#004E82"/>
	<stop  offset="1" style="stop-color:#3E80C2"/>
</linearGradient>
<path style="fill:url(#SVGID_00000152955142176651051430000008771295884586768785_);" d="M362.2,72.1c0.5-6.9,2.2-13.6,4.8-20
	c0,0,0.1,0.1,0.1,0.1l11.5,4.8c0.7,0.4,1.5,0.1,1.9-0.6c0.4-0.7,0.1-1.5-0.6-1.9c-0.1-0.1-0.2-0.1-0.3-0.1l-11.5-4.8h-0.1
	c3.2-6.8,7.5-12.9,12.8-18.2l8.5,8.4c0.5,0.5,1.4,0.5,1.9,0s0.5-1.4,0-1.9l-8.4-8.4c5.5-5,11.7-9.1,18.5-12l4.4,10.7
	c0.2,0.7,1,1.1,1.7,0.9c0.7-0.2,1.1-1,0.9-1.7c0-0.1-0.1-0.1-0.1-0.2L404,16.5c6.9-2.6,14.1-4,21.4-4.1v22.7c0,0.7,0.6,1.4,1.4,1.4
	l0,0l0,0c0.7,0,1.4-0.6,1.4-1.3v0V12.4c7.3,0.1,14.6,1.5,21.5,4.1l-4.4,10.6c-0.3,0.7,0,1.5,0.7,1.8c0.7,0.3,1.5,0,1.8-0.7
	c0,0,0,0,0,0l4.4-10.7c6.8,2.9,13.1,7,18.5,12l-8.4,8.4c-0.5,0.6-0.5,1.4,0.1,1.9c0.5,0.5,1.3,0.5,1.8,0l8.4-8.4
	c5.3,5.3,9.6,11.5,12.8,18.2h-0.1L474,54.4c-0.7,0.4-0.9,1.2-0.6,1.9c0.3,0.6,0.9,0.8,1.6,0.7l11.5-4.8c0,0,0.1,0,0.1-0.1
	c2.7,6.4,4.3,13.1,4.8,20c1.8-0.5,3.4-0.9,5-1.4c-3.6-38.4-37.7-66.6-76.1-63c-33.4,3.2-59.8,29.6-63,63
	C358.8,71.1,360.5,71.6,362.2,72.1z"/>
<linearGradient id="SVGID_00000155131730547818950170000010094644588250574270_" gradientUnits="userSpaceOnUse" x1="416.7424" y1="32.5859" x2="551.4924" y2="101.9559" gradientTransform="matrix(1 0 0 -1 -44.69 159.51)">
	<stop  offset="0" style="stop-color:#36003F"/>
	<stop  offset="0.33" style="stop-color:#60287D"/>
	<stop  offset="0.74" style="stop-color:#004E82"/>
	<stop  offset="1" style="stop-color:#3E80C2"/>
</linearGradient>
<path style="fill:url(#SVGID_00000155131730547818950170000010094644588250574270_);" d="M465.7,75.3L465.7,75.3
	c0,0.5,0.2,0.9,0.6,1.2C472.4,75.8,478,75,483,74h-16C466.3,74,465.7,74.6,465.7,75.3z"/>
<linearGradient id="SVGID_00000026872464809320249930000005935651161759999874_" gradientUnits="userSpaceOnUse" x1="418.5222" y1="29.1363" x2="553.2722" y2="98.4963" gradientTransform="matrix(1 0 0 -1 -44.69 159.51)">
	<stop  offset="0" style="stop-color:#36003F"/>
	<stop  offset="0.33" style="stop-color:#60287D"/>
	<stop  offset="0.74" style="stop-color:#004E82"/>
	<stop  offset="1" style="stop-color:#3E80C2"/>
</linearGradient>
<path style="fill:url(#SVGID_00000026872464809320249930000005935651161759999874_);" d="M489.7,91.5c0.1,8.1-4.6,15.5-11.9,18.8
	c-1.1,0.6-2.3,0.8-3.5,0.8c1.3-0.5,2.1-1.9,1.8-3.3c-0.4-1.4-1.7-2.3-3.1-2.2c-1.8,0.1-3.2,1.6-4.2,3.1s-1.9,3.2-3.4,4.1
	c-3.2,1.7-7.1-0.8-14.7,8v0.1c-1.6,1.9-4.6-0.1-3.6-2.4c1.4-2.8,3.3-5.4,5.5-7.6c3.4-4.6-1-9.1,4.1-16.3c0.4-0.6,1-1.2,1.5-1.6
	c-9.8,0.9-20.4,1.5-31.4,1.5c-7.5,0-14.9-0.2-21.9-0.7c0.2,2.6,1.5,4.9,3.6,6.4c6.5,4.3,6.9,14.7-0.4,16.7s-19.8-2.3-23.6-6.9
	c-3.1-3.6-6.1-12.4-6.9-19.4c-6.7-1.1-13.4-2.6-20-4.5c4.9,38.3,39.8,65.4,78.1,60.5c31.6-4,56.5-28.9,60.5-60.5
	c-2.1,0.6-4.2,1.2-6.5,1.7C489.7,89,489.7,90.3,489.7,91.5z M440.8,101.6c3.2,0,7.6,2.6,7.6,5.7s-4.5,5.7-7.6,5.7s-9.6-2.6-9.6-5.7
	S437.7,101.6,440.8,101.6z M433.5,115.5c1.3,0,2.3,1,2.3,2.3c0,1.3-1,2.3-2.3,2.3c-1.3,0-2.3-1-2.3-2.3c0,0,0,0,0,0
	C431.2,116.5,432.2,115.5,433.5,115.5C433.5,115.5,433.5,115.5,433.5,115.5z M426.5,142c-12.9,0-25.6-3.9-36.3-11.1
	c9.9-2.9,20-1,26.9,1.1c5.7,1.7,11.9,1.6,17.5-0.5c9.2-3.4,24.1-6.9,31.6-2C455.3,137.4,441,142,426.5,142L426.5,142z"/>
</svg>
